<svg xmlns="http://www.w3.org/2000/svg" viewBox="0 0 79.61 22.06"><defs><style>.a{fill:#f47920;}.b{fill:#472f92;}</style></defs><title>fedex-logo</title><path class="a" d="M439.93,310.55a2.07,2.07,0,1,0-2.07,2.12,2,2,0,0,0,2.07-2.12Zm-2.61.11V312h-.45V309H438c.65,0,1,.29,1,.84a.64.64,0,0,1-.53.65h0c.26,0,.35.27.41.69a2.87,2.87,0,0,0,.19.86h-.53a9.92,9.92,0,0,1-.21-1,.45.45,0,0,0-.52-.35Zm.56-.39c.44,0,.56-.23.56-.44s-.12-.43-.56-.43h-.56v.87Zm-2.57.29a2.56,2.56,0,1,1,2.56,2.53,2.51,2.51,0,0,1-2.56-2.53Z" transform="translate(-360.81 -291.35)"/><polygon class="a" points="65.63 21.28 62.68 17.98 59.76 21.28 53.61 21.28 59.62 14.53 53.61 7.77 59.95 7.77 62.93 11.05 65.8 7.77 71.92 7.77 65.93 14.5 72 21.28 65.63 21.28"/><polygon class="a" points="41.79 21.28 41.79 0 53.61 0 53.61 4.74 46.8 4.74 46.8 7.77 53.61 7.77 53.61 12.34 46.8 12.34 46.8 16.53 53.61 16.53 53.61 21.28 41.79 21.28"/><path class="b" d="M397.62,291.35v8.71h-.05a5,5,0,0,0-4.08-1.71,6.89,6.89,0,0,0-6.61,5.17,7.12,7.12,0,0,0-7.31-5.23,7.43,7.43,0,0,0-6.76,3.62v-2.79h-6.34v-3h6.92v-4.74H360.81v21.28h5.65v-8.95h5.63a8.48,8.48,0,0,0-.26,2.1,7.43,7.43,0,0,0,7.72,7.55,7.27,7.27,0,0,0,7.31-4.82H382a2.43,2.43,0,0,1-2.46,1.21,2.91,2.91,0,0,1-2.83-2.9h9.86a7.18,7.18,0,0,0,6.94,6.57,4.83,4.83,0,0,0,4-2.15h.05v1.38h5V291.35Zm-20.73,12.4a2.73,2.73,0,0,1,2.67-2.24,2.6,2.6,0,0,1,2.7,2.24Zm17.71,5.64c-1.84,0-3-1.71-3-3.5s1-3.75,3-3.75,2.88,1.84,2.88,3.75S396.61,309.4,394.6,309.4Z" transform="translate(-360.81 -291.35)"/></svg>