<svg id="Layer_1" data-name="Layer 1" xmlns="http://www.w3.org/2000/svg" viewBox="0 0 794.91 113.92"><title>ip-logo</title><path d="M9,195.12v39.6H0v-39.6Z" transform="translate(0 -157.47)"/><path d="M23.62,195.12l20.63,24.73V195.12h9v39.6H45.15L24.33,209.81v24.91h-9v-39.6Z" transform="translate(0 -157.47)"/><path d="M95.9,195.12v7H82.52v32.65h-9V202.14H60v-7Z" transform="translate(0 -157.47)"/><path d="M127.66,195.12v7H112v8.57h15v7H112v10.05h16.12v7H102.92v-39.6Z" transform="translate(0 -157.47)"/><path d="M149.31,195.12c4.64,0,7.85,1.07,10.35,3.44a11.28,11.28,0,0,1,3.39,8.15c0,4.46-1.72,7.08-6.25,9.52A11.83,11.83,0,0,1,160,219.5a52.64,52.64,0,0,1,4.58,8.86c1.49,3.57,2.32,5.23,3.27,6.36H157.34l-4.7-10.05c-2.08-4.34-4.4-6.18-7.73-6.18h-.78v16.23h-9v-39.6Zm-1.57,16.53c3.51,0,5.47-1.78,5.47-4.87s-1.84-4.64-5.47-4.64h-3.92v9.51Z" transform="translate(0 -157.47)"/><path d="M183.66,195.12l20.64,24.73V195.12h9v39.6h-8.09l-20.81-24.91v24.91h-9v-39.6Z" transform="translate(0 -157.47)"/><path d="M262,234.72h-9.63l-3.33-8.09H231.89l-3.09,8.09h-8.92l15.22-39.6h10.05Zm-22.18-30.21-5.65,15.69h12.13Z" transform="translate(0 -157.47)"/><path d="M291.18,195.12v7H277.8v32.65h-9V202.14h-13.5v-7Z" transform="translate(0 -157.47)"/><path d="M307.49,195.12v39.6h-9v-39.6Z" transform="translate(0 -157.47)"/><path d="M335.38,235.32c-12,0-20.93-8.69-20.93-20.4s9-20.39,20.93-20.39,20.82,8.68,20.82,20.39S347.33,235.32,335.38,235.32Zm-.06-33.13c-6.66,0-11.36,5.35-11.36,12.84,0,7.32,4.76,12.61,11.3,12.61s11.42-5.35,11.42-12.78C346.68,207.67,341.8,202.19,335.32,202.19Z" transform="translate(0 -157.47)"/><path d="M370.5,195.12l20.64,24.73V195.12h9v39.6H392l-20.81-24.91v24.91h-9v-39.6Z" transform="translate(0 -157.47)"/><path d="M449.13,234.72H439.5l-3.33-8.09H419l-3.09,8.09H407l15.22-39.6h10.05ZM427,204.51l-5.65,15.64h12.13Z" transform="translate(0 -157.47)"/><path d="M465.4,195.12v32.59h18.38v7H456.36v-39.6Z" transform="translate(0 -157.47)"/><path d="M636.41,195.12c4.16,0,7.56,1.3,9.75,3.8a13.54,13.54,0,0,1,3.21,8.39c0,6.78-5.35,11.48-13.08,11.48h-6.12v15.94h-9v-39.6Zm-2.5,16.65c3.86,0,5.89-1.67,5.89-4.88s-2-4.75-5.89-4.75h-3.75v9.63Z" transform="translate(0 -157.47)"/><path d="M688.86,234.72h-9.63l-3.33-8.09H658.71l-3.09,8.09H646.7l15.22-39.6H672Zm-22.18-30.21L661,220.15h12.18Z" transform="translate(0 -157.47)"/><path d="M710.46,195.12c4.16,0,7.55,1.3,9.75,3.8a13.5,13.5,0,0,1,3.22,8.39c0,6.78-5.36,11.48-13.09,11.48h-6.12v15.94h-9v-39.6ZM708,211.77c3.87,0,5.89-1.67,5.89-4.88s-2-4.75-5.89-4.75h-3.75v9.63Z" transform="translate(0 -157.47)"/><path d="M755.17,195.12v7H739.48v8.57h15v7h-15v10.05h16.11v7H730.44v-39.6Z" transform="translate(0 -157.47)"/><path d="M776.36,195.12c4.64,0,7.85,1.07,10.35,3.44a11.28,11.28,0,0,1,3.39,8.15c0,4.46-1.72,7.08-6.25,9.52a12,12,0,0,1,3.21,3.27,53,53,0,0,1,4.58,8.86c1.49,3.57,2.32,5.23,3.27,6.36H784.39l-4.7-10.05c-2.08-4.34-4.4-6.18-7.73-6.18h-.77v16.23h-9v-39.6Zm-1.25,16.53c3.51,0,5.48-1.78,5.48-4.87s-1.84-4.64-5.48-4.64h-3.92v9.51Z" transform="translate(0 -157.47)"/><path d="M494.81,214.43a57,57,0,1,1,57,57A57,57,0,0,1,494.81,214.43Zm62.69,45.9a46.28,46.28,0,1,0-10.69.1h0V206.48L560,185l30.11,50H561.18V224.54h10.49l-14.16-23v58.77Zm-5.92-89.44-38.56,64h12.35l32.91-53.49Z" transform="translate(0 -157.47)"/></svg>