<svg id="Layer_1" data-name="Layer 1" xmlns="http://www.w3.org/2000/svg" viewBox="0 0 380.89 110.89"><defs><style>.cls-1{fill:#231f20;}.cls-2{fill:#0082c4;}</style></defs><title>pinnacle-logo</title><path class="cls-1" d="M145.37,371.5h-6.65v0l-20,15.06v29.57h20v-30h14.36c11.91,0,18.33-2.92,18.33-18.68V350.48a35.13,35.13,0,0,0-.18-3.54l-18.5,14C152.69,369.68,152.22,371.6,145.37,371.5Z" transform="translate(-118.66 -328.82)"/><path class="cls-2" d="M138.71,347.68c2.45,0,10.16,0,11.56.58s2,1.54,2.28,3.7l17.73-9.61c-2.15-6.2-7.61-8.8-18.25-8.8H118.75V370.3l20-10.83Z" transform="translate(-118.66 -328.82)"/><polygon class="cls-1" points="57.99 19.09 76.56 19.09 76.56 0.02 57.99 14.02 57.99 19.09"/><rect class="cls-1" x="57.99" y="25.28" width="18.56" height="62"/><path class="cls-1" d="M233.75,352.46c-7.71,0-11.79,4.9-13.89,7.47V354.1H201.17v62h18.68V371.61c0-1.64,0-6.42,5.6-6.42,5.37,0,5.37,5,5.37,6.77v44.13h18.33V371.26c0-4.32-.12-8.64-3-12.73C244.14,355.62,240.29,352.46,233.75,352.46Z" transform="translate(-118.66 -328.82)"/><path class="cls-1" d="M287.46,352.46c-7.71,0-11.79,4.9-13.89,7.47V354.1H254.88v62h18.68V371.61c0-1.64,0-6.42,5.6-6.42,5.37,0,5.37,5,5.37,6.77v44.13h18.33V371.26c0-4.32-.12-8.64-3-12.73C297.85,355.62,294,352.46,287.46,352.46Z" transform="translate(-118.66 -328.82)"/><path class="cls-1" d="M355.89,371.38c0-4.09,0-11.67-7.94-15.88-4.79-2.45-11.44-3.15-16.58-3.15-23.12,0-22.88,13.66-22.65,22.3h17.86c0-6.19,0-9.69,5.26-9.69,1.17,0,4,0,5.14,3,.35,1.05.35,1.17.35,6.65-5.14,2.45-6.19,2.92-15.64,6.42-8.87,3.5-14.72,6-14.72,20.66,0,4.09,0,16.11,14.84,16.11,7.47,0,11.56-3.5,15.53-7v5.25h21.25c-2.1-2.57-2.68-4-2.68-9.69Zm-18.56,26.5c0,4.09-.47,8.06-6.54,8.06-4.67,0-4.67-3.39-4.67-7.12,0-5.25.35-7.47,3-9.46,1.05-.7,5.37-2.92,8.17-4.44Z" transform="translate(-118.66 -328.82)"/><path class="cls-1" d="M403.29,357.83c-1.87-1.63-7-5.37-18.21-5.37-23.7,0-23.7,13.66-23.7,20.66v25.68c0,6.19,0,19,24.63,19,9.34,0,14.6-2.57,17.86-5.6,4.2-3.85,4.44-8.06,4.44-12.38v-5.6H390v5.84c0,2.22,0,5.72-4.67,5.72s-5.49-3-5.49-5.72v-29.3c0-1.52,0-5.84,5.37-5.84,4.79,0,4.79,4.2,4.79,5.84v7h18.33v-6C408.31,367.17,408.31,361.92,403.29,357.83Z" transform="translate(-118.66 -328.82)"/><rect class="cls-1" x="294.78" y="4.85" width="18.68" height="82.43"/><path class="cls-1" d="M467.5,395.55c0,5.84,0,6.54-1.05,7.94a6,6,0,0,1-4.9,1.87c-5.14,0-5.14-4.09-5.14-6V389.24h28.25V373.6c0-8.41,0-21.25-23.35-21.25-17.28,0-23.7,6.19-23.7,24.17v16.81c0,9.57,1.05,14.36,4.67,18.21,5,5.25,13.78,6.3,19,6.3,3.74,0,15.65,0,21.13-7.82,2.92-4,2.92-8.64,2.92-14.48ZM456.41,371c0-2.1,0-6.77,5.6-6.77,5.14,0,5.14,4.44,5.14,6.77v6.42H456.41Z" transform="translate(-118.66 -328.82)"/><polygon class="cls-1" points="57.99 14.01 57.99 14.02 76.56 0.02 76.56 0 57.99 14.01"/><path class="cls-1" d="M120.76,429.55c0-2-.15-2.1-1.25-2.37l-.36-.09c-.21-.15-.18-.65.06-.74.42,0,.83.06,1.27.06s.92,0,1.39,0H126c1.3,0,2.43,0,2.85-.09,0,.36.06,1.75.15,3a.46.46,0,0,1-.77.06,4.13,4.13,0,0,0-.53-1.42c-.5-.74-1.81-.71-2.52-.71H124c-.92,0-1,0-1,1v3.44c0,.53,0,.59.56.59h1.6c1.57,0,1.72-.24,2-1.13l.15-.56a.5.5,0,0,1,.74.06c-.06.86-.06,1.39-.06,2.07s0,1.27.06,2.13a.5.5,0,0,1-.74.06l-.15-.56c-.24-.89-.39-1.13-2-1.13h-1.6c-.56,0-.56.09-.56.68v2.19c0,2,.12,2.25,1.39,2.37l.92.09c.21.15.18.65-.06.74-1.48-.06-2.46-.09-3.38-.09s-1.87,0-3,.09c-.24-.09-.27-.59-.06-.74l.56-.09c1.27-.21,1.39-.33,1.39-2.37Z" transform="translate(-118.66 -328.82)"/><path class="cls-1" d="M140.62,429.55c0-2-.12-2.16-1.39-2.37l-.56-.09c-.21-.15-.18-.65.06-.74,1.16.06,2.07.09,3,.09s1.87,0,3-.09c.24.09.27.59.06.74l-.56.09c-1.27.21-1.39.33-1.39,2.37v6.64c0,2,.12,2.16,1.39,2.37l.56.09c.21.15.18.65-.06.74-1.13-.06-2.1-.09-3-.09s-1.87,0-3,.09c-.24-.09-.27-.59-.06-.74l.56-.09c1.27-.21,1.39-.33,1.39-2.37Z" transform="translate(-118.66 -328.82)"/><path class="cls-1" d="M167,431c0-3-.18-3.71-1.27-3.82l-.95-.09a.5.5,0,0,1,.06-.74c1.1.06,1.78.09,2.64.09s1.51,0,2.46-.09a.5.5,0,0,1,0,.74l-.89.09c-.77.09-1,.89-1,3.82v5c0,.59,0,3,.09,3.44a.58.58,0,0,1-.62.27c-.33-.42-.92-1-2.76-3l-4.51-4.8c-1.13-1.19-1.9-2-2.28-2.28-.12,0-.12.33-.12,1.25v3.91c0,3,.18,3.73,1.27,3.82l.95.09a.48.48,0,0,1-.06.74c-1.1-.06-1.78-.09-2.64-.09s-1.42,0-2.46.09a.5.5,0,0,1,0-.74l.89-.09c.77-.09,1-.89,1-3.82v-5.31c0-1,0-1.39-.62-1.84a3.49,3.49,0,0,0-1.1-.42l-.44-.09a.48.48,0,0,1,.06-.74c1.13.09,1.93.09,2.55.09a7.38,7.38,0,0,0,1.19-.09,17.53,17.53,0,0,0,2.9,3.65l2.79,2.87c.65.65,2.37,2.52,2.7,2.76.18-.06.18-.47.18-1.19Z" transform="translate(-118.66 -328.82)"/><path class="cls-1" d="M183.68,433.76c-.65,0-.71-.06-.39-.86l1.07-2.64a6.78,6.78,0,0,1,.47-1h.06a5.73,5.73,0,0,1,.44,1.07l.92,2.52c.33.86.24.92-.53.92Zm2.52.95c.68,0,.77,0,1,.71l.71,1.93c.36.92.39,1.1-.39,1.21l-.59.09a.43.43,0,0,0,.06.74c.74-.06,1.6-.09,2.67-.09s1.69,0,2.46.09a.43.43,0,0,0,.09-.74l-.47-.09c-1.07-.21-1.33-.59-1.69-1.57l-2.67-7.08c-.68-1.81-1.16-3.35-1.27-3.65s-.24-.24-.47-.15a2.6,2.6,0,0,1-1.25,1.13,9.33,9.33,0,0,1-.77,2.49l-2.85,6.82c-.59,1.42-.92,1.75-1.84,2l-.68.15a.48.48,0,0,0,.06.74c.53,0,1.24-.09,2.07-.09s1.6,0,2.34.09c.3-.06.33-.59.09-.74l-.8-.15c-.56-.12-.65-.24-.33-1.19l.68-1.9c.24-.68.33-.71,1-.71Z" transform="translate(-118.66 -328.82)"/><path class="cls-1" d="M213.11,431c0-3-.18-3.71-1.27-3.82l-.95-.09a.5.5,0,0,1,.06-.74c1.1.06,1.78.09,2.64.09s1.51,0,2.46-.09a.5.5,0,0,1,0,.74l-.89.09c-.77.09-1,.89-1,3.82v5c0,.59,0,3,.09,3.44a.58.58,0,0,1-.62.27c-.33-.42-.92-1-2.76-3l-4.5-4.8c-1.13-1.19-1.9-2-2.28-2.28-.12,0-.12.33-.12,1.25v3.91c0,3,.18,3.73,1.27,3.82l.95.09a.48.48,0,0,1-.06.74c-1.1-.06-1.78-.09-2.64-.09s-1.42,0-2.46.09a.5.5,0,0,1,0-.74l.89-.09c.77-.09,1-.89,1-3.82v-5.31c0-1,0-1.39-.62-1.84a3.49,3.49,0,0,0-1.1-.42l-.44-.09a.48.48,0,0,1,.06-.74c1.13.09,1.93.09,2.55.09a7.38,7.38,0,0,0,1.19-.09,17.52,17.52,0,0,0,2.9,3.65l2.79,2.87c.65.65,2.37,2.52,2.7,2.76.18-.06.18-.47.18-1.19Z" transform="translate(-118.66 -328.82)"/><path class="cls-1" d="M236.94,426.58a26.75,26.75,0,0,0,.27,3.26.5.5,0,0,1-.77.06,3.77,3.77,0,0,0-4.12-3c-2.55,0-5.07,1.72-5.07,5.75s2.55,6.22,5.34,6.22a4.63,4.63,0,0,0,4.27-3,.46.46,0,0,1,.77,0,8.7,8.7,0,0,1-1,3.2,16,16,0,0,1-4,.62,9.07,9.07,0,0,1-5.22-1.36,6.29,6.29,0,0,1-2.82-5.28,6.51,6.51,0,0,1,2.49-5.33,9.43,9.43,0,0,1,5.78-1.72A21.91,21.91,0,0,1,236.94,426.58Z" transform="translate(-118.66 -328.82)"/><path class="cls-1" d="M249.15,429.55c0-2-.12-2.16-1.39-2.37l-.56-.09c-.21-.15-.18-.65.06-.74,1.16.06,2.07.09,3,.09s1.87,0,3-.09c.24.09.27.59.06.74l-.56.09c-1.27.21-1.39.33-1.39,2.37v6.64c0,2,.12,2.16,1.39,2.37l.56.09c.21.15.18.65-.06.74-1.13-.06-2.1-.09-3-.09s-1.87,0-3,.09c-.24-.09-.27-.59-.06-.74l.56-.09c1.27-.21,1.39-.33,1.39-2.37Z" transform="translate(-118.66 -328.82)"/><path class="cls-1" d="M267.35,433.76c-.65,0-.71-.06-.39-.86l1.07-2.64a6.79,6.79,0,0,1,.47-1h.06a5.69,5.69,0,0,1,.44,1.07l.92,2.52c.33.86.24.92-.53.92Zm2.52.95c.68,0,.77,0,1,.71l.71,1.93c.36.92.39,1.1-.39,1.21l-.59.09a.43.43,0,0,0,.06.74c.74-.06,1.6-.09,2.67-.09s1.69,0,2.46.09a.43.43,0,0,0,.09-.74l-.47-.09c-1.07-.21-1.33-.59-1.69-1.57l-2.67-7.08c-.68-1.81-1.16-3.35-1.27-3.65s-.24-.24-.47-.15a2.6,2.6,0,0,1-1.24,1.13,9.36,9.36,0,0,1-.77,2.49l-2.85,6.82c-.59,1.42-.92,1.75-1.84,2l-.68.15a.48.48,0,0,0,.06.74c.53,0,1.24-.09,2.07-.09s1.6,0,2.34.09c.3-.06.33-.59.09-.74l-.8-.15c-.56-.12-.65-.24-.33-1.19l.68-1.9c.24-.68.33-.71,1-.71Z" transform="translate(-118.66 -328.82)"/><path class="cls-1" d="M286.59,429.55c0-2-.12-2.16-1.39-2.37l-.56-.09c-.21-.15-.18-.65.06-.74,1.16.06,2.07.09,3,.09s1.87,0,2.85-.09c.24.09.27.59.06.74l-.39.09c-1.25.3-1.39.33-1.39,2.37v6.37a3.85,3.85,0,0,0,.33,2c.27.27.74.47,2.28.47,1.81,0,2.9-.09,3.76-2.46a.51.51,0,0,1,.77.12,11,11,0,0,1-.89,3.29c-.92,0-1.78-.06-2.61-.06s-1.57,0-2.34,0h-2.43c-.95,0-1.87,0-3,.09-.24-.09-.27-.59-.06-.74l.56-.09c1.27-.21,1.39-.33,1.39-2.37Z" transform="translate(-118.66 -328.82)"/><path class="cls-1" d="M324.88,429.9c0-1.93,0-2.37-.71-2.49l-.89-.15c-.27-.09-.24-.65,0-.74,1.66-.12,3.17-.18,4.74-.18a10.29,10.29,0,0,1,3.56.5,3.57,3.57,0,0,1,2.4,3.47,3.44,3.44,0,0,1-2.46,3.38,7.31,7.31,0,0,1-2.7.44.41.41,0,0,1,0-.53,3.11,3.11,0,0,0,2.76-3.38c0-2-1.21-3-3.23-3-1.21,0-1.21.18-1.21,1v8c0,2,.12,2.19,1.39,2.37l.68.09c.21.15.18.65-.06.74-1.25-.06-2.22-.09-3.14-.09s-1.87,0-2.91.09c-.24-.09-.27-.59-.06-.74l.44-.09c1.27-.27,1.39-.33,1.39-2.37Z" transform="translate(-118.66 -328.82)"/><path class="cls-1" d="M346.7,433.76c-.65,0-.71-.06-.39-.86l1.07-2.64a6.75,6.75,0,0,1,.47-1h.06a5.72,5.72,0,0,1,.45,1.07l.92,2.52c.33.86.24.92-.53.92Zm2.52.95c.68,0,.77,0,1,.71l.71,1.93c.36.92.39,1.1-.39,1.21l-.59.09a.43.43,0,0,0,.06.74c.74-.06,1.6-.09,2.67-.09s1.69,0,2.46.09a.43.43,0,0,0,.09-.74l-.47-.09c-1.07-.21-1.33-.59-1.69-1.57l-2.67-7.08c-.68-1.81-1.16-3.35-1.27-3.65s-.24-.24-.47-.15a2.6,2.6,0,0,1-1.25,1.13,9.31,9.31,0,0,1-.77,2.49l-2.84,6.82c-.59,1.42-.92,1.75-1.84,2l-.68.15a.48.48,0,0,0,.06.74c.53,0,1.24-.09,2.07-.09s1.6,0,2.34.09c.3-.06.33-.59.09-.74l-.8-.15c-.56-.12-.65-.24-.33-1.19l.68-1.9c.24-.68.33-.71,1-.71Z" transform="translate(-118.66 -328.82)"/><path class="cls-1" d="M368.19,428c0-.77.21-.83,1.3-.83A2.79,2.79,0,0,1,372.6,430c0,2-1,2.82-2.93,2.82-1.45,0-1.48,0-1.48-.74Zm-2.25,8.15c0,2-.12,2.1-1.39,2.37l-.44.09a.43.43,0,0,0,.06.74c1-.06,2-.09,2.9-.09s1.9,0,3.14.09c.24-.09.27-.59.06-.74l-.68-.09c-1.27-.18-1.39-.33-1.39-2.37v-2.1c0-.41.06-.47.83-.47a1.37,1.37,0,0,1,1.19.47c.62.95,1.42,2.25,2.16,3.2,1.3,1.66,2.37,2.22,4.15,2.22a4.16,4.16,0,0,0,1.25-.15.36.36,0,0,0,0-.47,2.66,2.66,0,0,1-1.57-.62,18,18,0,0,1-3.76-4.74.36.36,0,0,1,0-.45,3.42,3.42,0,0,0,2.64-3.17c0-3.11-3-3.56-5.75-3.56-1.63,0-3.29.06-4.92.18-.3.09-.24.71,0,.74l.83.12c.68.09.71.59.71,2.52Z" transform="translate(-118.66 -328.82)"/><path class="cls-1" d="M389.92,428.06c0-.77,0-.77-.62-.77h-.92c-1.81,0-2.58.18-3.29,2.22a.51.51,0,0,1-.74-.15c.33-1.27.65-2.76.8-3.5a.45.45,0,0,1,.53,0c0,.59.44.56,1.63.56h8.24c1.1,0,1.3,0,1.54-.56a.4.4,0,0,1,.53.09,12.39,12.39,0,0,0-.3,3.47.48.48,0,0,1-.74,0c-.21-1.93-1-2.16-2.76-2.16h-1c-.56,0-.65,0-.65.77v8.12c0,2,.12,2.22,1.39,2.37l.8.09c.21.15.18.65-.06.74-1.21-.06-2.34-.09-3.26-.09s-2,0-3.26.09c-.24-.09-.27-.59-.06-.74l.8-.09c1.27-.15,1.39-.33,1.39-2.37Z" transform="translate(-118.66 -328.82)"/><path class="cls-1" d="M418.93,431c0-3-.18-3.71-1.27-3.82l-.95-.09a.5.5,0,0,1,.06-.74c1.1.06,1.78.09,2.64.09s1.51,0,2.46-.09a.5.5,0,0,1,0,.74l-.89.09c-.77.09-1,.89-1,3.82v5c0,.59,0,3,.09,3.44a.58.58,0,0,1-.62.27c-.33-.42-.92-1-2.76-3l-4.5-4.8c-1.13-1.19-1.9-2-2.28-2.28-.12,0-.12.33-.12,1.25v3.91c0,3,.18,3.73,1.27,3.82l.95.09a.48.48,0,0,1-.06.74c-1.1-.06-1.78-.09-2.64-.09s-1.42,0-2.46.09a.5.5,0,0,1,0-.74l.89-.09c.77-.09,1-.89,1-3.82v-5.31c0-1,0-1.39-.62-1.84a3.47,3.47,0,0,0-1.1-.42l-.44-.09a.48.48,0,0,1,.06-.74c1.13.09,1.93.09,2.55.09a7.38,7.38,0,0,0,1.19-.09,17.54,17.54,0,0,0,2.9,3.65l2.79,2.87c.65.65,2.37,2.52,2.7,2.76.18-.06.18-.47.18-1.19Z" transform="translate(-118.66 -328.82)"/><path class="cls-1" d="M433.61,429.55c0-2-.12-2.13-1.24-2.37l-.42-.09a.5.5,0,0,1,.06-.74c.44,0,.89.06,1.33.06s.95,0,1.42,0H439a25.11,25.11,0,0,0,2.76-.09c0,.36.18,1.75.33,3a.53.53,0,0,1-.77.06,4.14,4.14,0,0,0-.53-1.42c-.47-.71-1.81-.71-2.52-.71h-1.3c-1,0-1.07,0-1.07.95v3.29c0,.53,0,.59.56.59h1.39c1.57,0,1.72-.24,2-1.13l.15-.56a.5.5,0,0,1,.74.06c-.06.86-.06,1.39-.06,2.08s0,1.27.06,2.13a.5.5,0,0,1-.74.06l-.15-.56c-.24-.89-.38-1.13-2-1.13h-1.39c-.56,0-.56.09-.56.68v2.13a4.38,4.38,0,0,0,.33,2.13c.27.3.8.42,2.49.42,1.9,0,3-.09,3.85-2.46a.51.51,0,0,1,.77.12,11,11,0,0,1-.89,3.29c-.92,0-1.78-.06-2.61-.06s-1.63,0-2.43,0h-2.61c-.95,0-1.87,0-3.29.09-.24-.09-.27-.59-.06-.74l.8-.09c1.27-.15,1.39-.33,1.39-2.37Z" transform="translate(-118.66 -328.82)"/><path class="cls-1" d="M456.84,428c0-.77.21-.83,1.3-.83a2.79,2.79,0,0,1,3.11,2.79c0,2-1,2.82-2.93,2.82-1.45,0-1.48,0-1.48-.74Zm-2.25,8.15c0,2-.12,2.1-1.39,2.37l-.44.09a.43.43,0,0,0,.06.74c1-.06,2-.09,2.91-.09s1.9,0,3.14.09c.24-.09.27-.59.06-.74l-.68-.09c-1.28-.18-1.39-.33-1.39-2.37v-2.1c0-.41.06-.47.83-.47a1.38,1.38,0,0,1,1.19.47c.62.95,1.42,2.25,2.16,3.2,1.3,1.66,2.37,2.22,4.15,2.22a4.15,4.15,0,0,0,1.25-.15.36.36,0,0,0,0-.47,2.66,2.66,0,0,1-1.57-.62,18,18,0,0,1-3.76-4.74.36.36,0,0,1,0-.45,3.42,3.42,0,0,0,2.64-3.17c0-3.11-3-3.56-5.75-3.56-1.63,0-3.29.06-4.92.18-.3.09-.24.71,0,.74l.83.12c.68.09.71.59.71,2.52Z" transform="translate(-118.66 -328.82)"/><path class="cls-1" d="M478.06,433.25c-1.42-.74-2.64-1.9-2.64-3.56,0-2.16,1.66-3.68,4.65-3.68a14.45,14.45,0,0,1,2.76.44,7.51,7.51,0,0,1,.42,2.91c-.09.24-.62.27-.77.06a3,3,0,0,0-2.76-2.55c-1.75,0-2.4,1-2.4,2s.8,1.72,2,2.34l1.84.95a4.23,4.23,0,0,1,2.4,3.76c0,2.31-1.9,3.76-4.83,3.76a6.07,6.07,0,0,1-3.41-.92,6.24,6.24,0,0,1-.62-3.05.46.46,0,0,1,.77-.06c.24,1.07,1.54,3.17,3.53,3.17,1.51,0,2.49-.77,2.49-2.13,0-.95-.39-1.93-2.08-2.79Z" transform="translate(-118.66 -328.82)"/><path class="cls-1" d="M485.23,358.3a3.26,3.26,0,0,1-.33-1.67.24.24,0,0,1,.34,0c.2.56.79,1.74,1.87,1.74a1.17,1.17,0,0,0,1.31-1.18,1.77,1.77,0,0,0-1.12-1.6l-.47-.26a2.54,2.54,0,0,1-1.55-2.12c0-1.09.81-2,2.42-2a7.32,7.32,0,0,1,1.51.23,4.61,4.61,0,0,1,.23,1.49.26.26,0,0,1-.35,0,1.56,1.56,0,0,0-1.49-1.31,1.12,1.12,0,0,0-1.24,1.16,1.63,1.63,0,0,0,1,1.34l.68.36a2.49,2.49,0,0,1,1.51,2.17c0,1.25-1,2.14-2.55,2.14A3.32,3.32,0,0,1,485.23,358.3Z" transform="translate(-118.66 -328.82)"/><path class="cls-1" d="M499.45,358.3c.11,0,.1.27,0,.32-.47,0-.9,0-1.34,0s-1,0-1.47,0c-.09,0-.13-.25,0-.32l.3-.05c.44-.07.47-.15.47-.9v-4.5h0c-.3.61-.45.94-.66,1.38l-.95,1.94c-.37.77-.92,2-1.12,2.51a.32.32,0,0,1-.29,0c-.19-.59-.66-1.67-.91-2.22l-1-2.11c-.21-.46-.51-1.16-.64-1.49h0c0,.54,0,1.4-.07,1.86,0,.67,0,1.65,0,2.55,0,.73,0,.9.48,1l.36.07c.08.07.08.27,0,.32-.41,0-.75,0-1.16,0s-.75,0-1.18,0a.24.24,0,0,1,0-.32l.19,0c.53-.07.62-.23.68-.9s.11-1.41.17-2.55c0-.75.11-1.66.11-2.33,0-.52-.17-.75-.59-.81l-.37-.07c-.07-.08-.06-.29,0-.32.33,0,.63,0,1,0s.77,0,1.18,0a5.19,5.19,0,0,0,.6,1.83l1.21,2.54c.09.19.37.74.52,1,.18-.32.33-.63.57-1.14l1-2.11a11.46,11.46,0,0,0,.89-2.1c.3,0,.66,0,.9,0q.69,0,1.16,0a.19.19,0,0,1,0,.32l-.36.06c-.48.07-.59.25-.59.84,0,1.63,0,3.26.1,4.88,0,.74.15.81.51.86Z" transform="translate(-118.66 -328.82)"/></svg>