<svg id="Layer_1" data-name="Layer 1" xmlns="http://www.w3.org/2000/svg" viewBox="0 0 783.2 100.19"><defs><style>.cls-1{fill:#f4364b;}.cls-2{fill:#0071ce;}</style></defs><title>servicemaster-logo</title><path class="cls-1" d="M504.72,471.37h0l-.56-.58-29.3-29.53-5.67-5.72a2.84,2.84,0,0,0-1.83-.81h-.57a2.84,2.84,0,0,0-1.83.81l-5.65,5.72-29.44,29.67-.56.57h0a4.22,4.22,0,0,0,0,5.9l3.87,3.92a4.19,4.19,0,0,0,6,0l25.56-25.76a3.29,3.29,0,0,1,3.63-.71l.08,0a3.45,3.45,0,0,1,1.07.71l25.39,25.59a4.19,4.19,0,0,0,6,0l3.87-3.91a4.22,4.22,0,0,0,0-5.9" transform="translate(-377.73 -434.73)"/><path class="cls-2" d="M413.42,487.94a4.19,4.19,0,0,1,6,0l3.87,3.92a4.22,4.22,0,0,1,0,5.9l-34.49,34.76a4.19,4.19,0,0,1-6,0l-3.87-3.92a4.22,4.22,0,0,1,0-5.9Z" transform="translate(-377.73 -434.73)"/><path class="cls-2" d="M555.11,522.7a4.22,4.22,0,0,1,0,5.9l-3.87,3.92a4.21,4.21,0,0,1-6,0l-34.49-34.76a4.2,4.2,0,0,1,0-5.9l3.87-3.92a4.19,4.19,0,0,1,6,0Z" transform="translate(-377.73 -434.73)"/><path class="cls-2" d="M616.92,512.29a14.24,14.24,0,0,0,1.24,6.21,11.35,11.35,0,0,0,3.46,4.22,14.8,14.8,0,0,0,5.11,2.39,24.78,24.78,0,0,0,6.26.75,20.31,20.31,0,0,0,6.21-.83,12.72,12.72,0,0,0,4.16-2.17,7.92,7.92,0,0,0,2.32-3.07,9.2,9.2,0,0,0,.7-3.5q0-3.64-1.64-5.38a9.48,9.48,0,0,0-3.6-2.44,78.15,78.15,0,0,0-7.85-2.35q-4.49-1.1-11.05-2.88a23.49,23.49,0,0,1-6.78-2.79,16.11,16.11,0,0,1-4.31-3.86,13.42,13.42,0,0,1-2.26-4.53,18,18,0,0,1-.67-4.88,16.54,16.54,0,0,1,2-8.29,17.84,17.84,0,0,1,5.28-5.81,23.2,23.2,0,0,1,7.46-3.42,32.39,32.39,0,0,1,8.43-1.11,33.15,33.15,0,0,1,9.36,1.29,23,23,0,0,1,7.73,3.86,18.92,18.92,0,0,1,5.28,6.34,18.69,18.69,0,0,1,1.95,8.74H644.6c-.3-4.09-1.68-7-4.17-8.66a16.58,16.58,0,0,0-9.5-2.53,20.59,20.59,0,0,0-4,.4,12.59,12.59,0,0,0-3.73,1.34,8,8,0,0,0-2.79,2.53,7.71,7.71,0,0,0,1,9.27,13.4,13.4,0,0,0,5.45,2.88l2.79.76c1.63.45,3.44.92,5.45,1.46l5.9,1.56c1.93.5,3.29.87,4.13,1.1a18.87,18.87,0,0,1,5.41,2.66,17.18,17.18,0,0,1,3.86,3.86,16,16,0,0,1,2.3,4.66,17.07,17.07,0,0,1,.76,5,17.94,17.94,0,0,1-2.17,9.09,18.45,18.45,0,0,1-5.73,6.17,24.58,24.58,0,0,1-8.07,3.51,38.91,38.91,0,0,1-9.23,1.11,37.88,37.88,0,0,1-10.21-1.34,23.92,23.92,0,0,1-8.34-4.09,19.73,19.73,0,0,1-5.68-7,23.38,23.38,0,0,1-2.22-10.16Z" transform="translate(-377.73 -434.73)"/><path class="cls-2" d="M694.82,506.43a16.26,16.26,0,0,0-1-4.61,12.31,12.31,0,0,0-2.32-3.86,11.44,11.44,0,0,0-3.54-2.66,10.51,10.51,0,0,0-4.66-1,12.1,12.1,0,0,0-4.83.94,10.9,10.9,0,0,0-3.73,2.57,12.8,12.8,0,0,0-2.48,3.85,13.39,13.39,0,0,0-1,4.8Zm-23.6,6.66a17.64,17.64,0,0,0,.76,5.14,12.75,12.75,0,0,0,2.26,4.35,11,11,0,0,0,3.82,3,12.65,12.65,0,0,0,5.5,1.1,12.17,12.17,0,0,0,7.15-1.9,11.19,11.19,0,0,0,4-5.72h9.58a19,19,0,0,1-2.75,6.66,19.22,19.22,0,0,1-4.7,4.92,20.27,20.27,0,0,1-6.17,3,24.93,24.93,0,0,1-7.15,1,24.37,24.37,0,0,1-9.58-1.77,20,20,0,0,1-7.06-5,21.09,21.09,0,0,1-4.34-7.63,30.92,30.92,0,0,1-1.47-9.76,27.63,27.63,0,0,1,1.56-9.27,23.69,23.69,0,0,1,4.44-7.73,20.77,20.77,0,0,1,16.19-7.22,20.51,20.51,0,0,1,9.72,2.26,21.26,21.26,0,0,1,7.15,6,24.27,24.27,0,0,1,4.12,8.56,26.33,26.33,0,0,1,.67,10Z" transform="translate(-377.73 -434.73)"/><path class="cls-2" d="M709.56,487.53h9.5v8.87h.18c.3-1.25.87-1.73,1.73-2.92a16.66,16.66,0,0,1,3.11-3.23,15.58,15.58,0,0,1,4-2.36,12.12,12.12,0,0,1,4.53-.89c1.19,0,2.13.06,2.44.1a3.75,3.75,0,0,1,1.37.42v8.78c-.7-.12-1.44-.22-2.17-.31a18,18,0,0,0-2.17-.13,11.7,11.7,0,0,0-4.84,1,11,11,0,0,0-3.94,3,15,15,0,0,0-2.67,4.92,21.54,21.54,0,0,0-1,6.75V533.4H709.56Z" transform="translate(-377.73 -434.73)"/><path class="cls-2" d="M1134,487.53h9.5v8.87h.18c.3-1.25.87-1.73,1.73-2.92a16.66,16.66,0,0,1,3.11-3.23,15.58,15.58,0,0,1,4-2.36,12.12,12.12,0,0,1,4.53-.89c1.19,0,2.13.06,2.44.1a3.75,3.75,0,0,1,1.37.42v8.78c-.7-.12-1.44-.22-2.17-.31a18.17,18.17,0,0,0-2.17-.13,11.7,11.7,0,0,0-4.84,1,11,11,0,0,0-3.94,3,15,15,0,0,0-2.67,4.92,21.54,21.54,0,0,0-1,6.75V533.4H1134Z" transform="translate(-377.73 -434.73)"/><polygon class="cls-2" points="395.63 52.8 384.45 88.02 384.26 88.02 372.64 52.8 361.64 52.8 378.33 98.67 389.68 98.67 406.1 52.8 395.63 52.8"/><path class="cls-2" d="M787.47,533.4h10.12V487.54H787.47Zm0-53.77h10.12v-9.57H787.47Z" transform="translate(-377.73 -434.73)"/><path class="cls-2" d="M834.57,502.88a9.5,9.5,0,0,0-3.42-6.43,11.16,11.16,0,0,0-7.06-2.17,14.75,14.75,0,0,0-4.16.66,10,10,0,0,0-4.09,2.49,13.79,13.79,0,0,0-3.11,5.05A23.92,23.92,0,0,0,811.5,511a24.64,24.64,0,0,0,.67,5.68,15.45,15.45,0,0,0,2.14,5.06,11.51,11.51,0,0,0,3.76,3.6,10.77,10.77,0,0,0,5.59,1.37,10.18,10.18,0,0,0,7.32-2.75,12.78,12.78,0,0,0,3.6-7.71h10.12q-1.44,8.95-6.79,13.7t-14.25,4.75a23.39,23.39,0,0,1-9.53-1.83,20.08,20.08,0,0,1-7-5,21.17,21.17,0,0,1-4.31-7.5,29.18,29.18,0,0,1-1.46-9.41,32.16,32.16,0,0,1,1.41-9.67,22.12,22.12,0,0,1,4.26-7.85,19.87,19.87,0,0,1,7.06-5.23,23.62,23.62,0,0,1,9.88-1.91,27.73,27.73,0,0,1,7.59,1,20.11,20.11,0,0,1,6.39,3.06,16.25,16.25,0,0,1,4.56,5.14,17.82,17.82,0,0,1,2.14,7.37Z" transform="translate(-377.73 -434.73)"/><path class="cls-2" d="M881.7,506.43a16.28,16.28,0,0,0-1-4.61,12.08,12.08,0,0,0-2.3-3.86,11.57,11.57,0,0,0-3.54-2.66,10.46,10.46,0,0,0-4.65-1,12.1,12.1,0,0,0-4.83.94,11,11,0,0,0-3.73,2.57,12.77,12.77,0,0,0-2.47,3.85,13.39,13.39,0,0,0-1,4.8Zm-23.58,6.66a17.64,17.64,0,0,0,.76,5.14,12.56,12.56,0,0,0,2.26,4.35,11,11,0,0,0,3.81,3,12.65,12.65,0,0,0,5.5,1.1,12.16,12.16,0,0,0,7.14-1.9,11.32,11.32,0,0,0,4-5.72h9.56a18.93,18.93,0,0,1-7.44,11.58,20.21,20.21,0,0,1-6.16,3,24.85,24.85,0,0,1-7.14,1,24.27,24.27,0,0,1-9.57-1.77,19.85,19.85,0,0,1-7-5,20.93,20.93,0,0,1-4.34-7.63,30.92,30.92,0,0,1-1.46-9.76,27.62,27.62,0,0,1,1.55-9.27,23.47,23.47,0,0,1,4.43-7.73,20.77,20.77,0,0,1,16.17-7.22,20.5,20.5,0,0,1,9.71,2.26,21.28,21.28,0,0,1,7.12,6,24.26,24.26,0,0,1,4.12,8.56,26.33,26.33,0,0,1,.67,10Z" transform="translate(-377.73 -434.73)"/><polygon class="cls-2" points="571.06 35.32 554.01 84.92 553.84 84.92 536.35 35.32 520.74 35.32 520.74 98.68 531.31 98.68 531.31 49.79 531.47 49.79 549.05 98.68 558.18 98.68 575.75 49.79 575.93 49.79 575.93 98.68 586.5 98.68 586.5 35.32 571.06 35.32"/><path class="cls-2" d="M998.95,510.42a12.36,12.36,0,0,1-5.68,1.83q-3.37.3-6.75.92a22.56,22.56,0,0,0-3.11.76,9.45,9.45,0,0,0-2.66,1.32,5.87,5.87,0,0,0-1.81,2.23,7.55,7.55,0,0,0-.67,3.33,4.21,4.21,0,0,0,1,2.84,7,7,0,0,0,2.35,1.81,10.85,10.85,0,0,0,3,.94,18.59,18.59,0,0,0,3,.27,16.22,16.22,0,0,0,3.64-.45,12.21,12.21,0,0,0,3.68-1.51,9.69,9.69,0,0,0,2.88-2.7,6.91,6.91,0,0,0,1.15-4Zm10.12,12.78a5.41,5.41,0,0,0,.49,2.66,2,2,0,0,0,1.9.8h1.07a7,7,0,0,0,1.41-.18v7c-.36.11-.81.24-1.37.39s-1.15.29-1.74.4a16.18,16.18,0,0,1-1.77.27,13.4,13.4,0,0,1-1.51.09,9.77,9.77,0,0,1-5.14-1.24,6.21,6.21,0,0,1-2.66-4.35,18,18,0,0,1-7.41,4.26,29.44,29.44,0,0,1-8.47,1.32,20.57,20.57,0,0,1-5.94-.85,15.3,15.3,0,0,1-5-2.48,11.8,11.8,0,0,1-3.46-4.16,12.9,12.9,0,0,1-1.29-5.9,13.51,13.51,0,0,1,1.56-6.92,11.54,11.54,0,0,1,4.07-4.17,18.64,18.64,0,0,1,5.69-2.17c2.09-.45,4.21-.78,6.33-1,1.84-.36,3.58-.6,5.24-.76a24.23,24.23,0,0,0,4.39-.75,6.61,6.61,0,0,0,3-1.65,4.49,4.49,0,0,0,1.11-3.33,5.18,5.18,0,0,0-.94-3.19,6.17,6.17,0,0,0-2.3-1.9,9.8,9.8,0,0,0-3.06-.89,25.17,25.17,0,0,0-3.19-.22,12.66,12.66,0,0,0-7,1.78,7,7,0,0,0-3.11,5.5H969.85a15.21,15.21,0,0,1,2.13-7.37,14.81,14.81,0,0,1,4.74-4.7,19.39,19.39,0,0,1,6.52-2.48,38.42,38.42,0,0,1,7.46-.71,31.09,31.09,0,0,1,6.66.71,18.75,18.75,0,0,1,5.9,2.3,12.55,12.55,0,0,1,4.21,4.13,11.26,11.26,0,0,1,1.6,6.16Z" transform="translate(-377.73 -434.73)"/><path class="cls-2" d="M1025.6,518.67q.45,4.44,3.37,6.21a13.29,13.29,0,0,0,7,1.78,28,28,0,0,0,3.24-.22,14.4,14.4,0,0,0,3.41-.85,6.47,6.47,0,0,0,2.63-1.81,4.37,4.37,0,0,0,.92-3.16,4.47,4.47,0,0,0-1.41-3.18,9.74,9.74,0,0,0-3.42-2,33.4,33.4,0,0,0-4.75-1.29c-1.77-.35-3.57-.73-5.41-1.15a48.36,48.36,0,0,1-5.45-1.51,17.37,17.37,0,0,1-4.71-2.39,11.2,11.2,0,0,1-3.33-3.86,12.33,12.33,0,0,1-1.24-5.81,10.44,10.44,0,0,1,1.81-6.26,13.94,13.94,0,0,1,4.62-4.07,20,20,0,0,1,6.21-2.18,36.66,36.66,0,0,1,6.52-.62,29.46,29.46,0,0,1,6.79.77,18.16,18.16,0,0,1,5.86,2.44,14.32,14.32,0,0,1,4.34,4.39,15.09,15.09,0,0,1,2.17,6.52h-10.55c-.48-2.43-1.58-4.05-3.33-4.89a13.88,13.88,0,0,0-6-1.24,20.43,20.43,0,0,0-2.53.18,11.42,11.42,0,0,0-2.75.67,5.74,5.74,0,0,0-2.18,1.41,3.4,3.4,0,0,0-.88,2.44,3.85,3.85,0,0,0,1.28,3,10,10,0,0,0,3.37,1.91,33.4,33.4,0,0,0,4.75,1.29c1.77.35,3.61.73,5.5,1.15a55.49,55.49,0,0,1,5.41,1.5,17.66,17.66,0,0,1,4.75,2.4,11.06,11.06,0,0,1,4.65,9.5,12.33,12.33,0,0,1-1.87,6.92,14.61,14.61,0,0,1-4.83,4.61,22.12,22.12,0,0,1-6.61,2.57,33.32,33.32,0,0,1-7.18.8,31.06,31.06,0,0,1-8-1,18.58,18.58,0,0,1-6.39-3,14.38,14.38,0,0,1-4.25-5,15.79,15.79,0,0,1-1.65-7.06Z" transform="translate(-377.73 -434.73)"/><path class="cls-2" d="M1057,487.53h7.64V473.77h10.11v13.76h9.14v7.54h-9.14v24.5a24.4,24.4,0,0,0,.13,2.75,4.79,4.79,0,0,0,.62,1.95,3,3,0,0,0,1.46,1.2,7.28,7.28,0,0,0,2.67.39c.7,0,1.41,0,2.13,0a9.93,9.93,0,0,0,2.13-.32v7.81l-3.28.36a28.66,28.66,0,0,1-3.28.18,22.37,22.37,0,0,1-6.42-.76,8.47,8.47,0,0,1-3.82-2.22,7.6,7.6,0,0,1-1.87-3.68,27.65,27.65,0,0,1-.57-5.05V495.07H1057Z" transform="translate(-377.73 -434.73)"/><path class="cls-2" d="M1118.93,506.43a16.26,16.26,0,0,0-1-4.61,12.31,12.31,0,0,0-2.32-3.86,11.44,11.44,0,0,0-3.54-2.66,10.51,10.51,0,0,0-4.66-1,12.1,12.1,0,0,0-4.83.94,10.9,10.9,0,0,0-3.73,2.57,12.8,12.8,0,0,0-2.48,3.85,13.39,13.39,0,0,0-1,4.8Zm-23.6,6.66a17.64,17.64,0,0,0,.76,5.14,12.75,12.75,0,0,0,2.26,4.35,11,11,0,0,0,3.82,3,12.65,12.65,0,0,0,5.5,1.1,12.17,12.17,0,0,0,7.15-1.9,11.19,11.19,0,0,0,4-5.72h9.58a19,19,0,0,1-2.75,6.66,19.22,19.22,0,0,1-4.7,4.92,20.27,20.27,0,0,1-6.17,3,24.93,24.93,0,0,1-7.15,1,24.37,24.37,0,0,1-9.58-1.77,20,20,0,0,1-7.06-5,21.09,21.09,0,0,1-4.34-7.63,30.92,30.92,0,0,1-1.47-9.76,27.63,27.63,0,0,1,1.56-9.27,23.66,23.66,0,0,1,4.43-7.73,21.36,21.36,0,0,1,7-5.28,21.14,21.14,0,0,1,9.23-1.95,20.51,20.51,0,0,1,9.72,2.26,21.26,21.26,0,0,1,7.15,6,24.26,24.26,0,0,1,4.12,8.56,26.33,26.33,0,0,1,.67,10Z" transform="translate(-377.73 -434.73)"/><path class="cls-2" d="M1155.38,527.25a2.46,2.46,0,0,0,.88-.14c.22-.1.33-.33.33-.71a.63.63,0,0,0-.11-.4.77.77,0,0,0-.31-.22,1.18,1.18,0,0,0-.41-.11,3.08,3.08,0,0,0-.43,0h-1v1.63Zm0-2.58a3.24,3.24,0,0,1,1.79.41,1.55,1.55,0,0,1,.62,1.41,2,2,0,0,1-.12.73,1.22,1.22,0,0,1-.35.49,1.43,1.43,0,0,1-.52.3,2.66,2.66,0,0,1-.63.13l1.66,2.7h-1.28l-1.51-2.65h-.77v2.65h-1.22v-6.19Zm-4,4.84a4.31,4.31,0,0,0,.88,1.38,4.18,4.18,0,0,0,4.58.91,4.08,4.08,0,0,0,1.32-.91,4.48,4.48,0,0,0,1.22-3.13,4.47,4.47,0,0,0-.33-1.74,4.42,4.42,0,0,0-.89-1.36,3.89,3.89,0,0,0-1.32-.9,4,4,0,0,0-1.61-.32,4.05,4.05,0,0,0-1.64.32,4,4,0,0,0-1.32.9,4.21,4.21,0,0,0-.88,1.36,4.86,4.86,0,0,0,0,3.48m-1.37-4a5.33,5.33,0,0,1,1.25-1.74,5.48,5.48,0,0,1,1.81-1.1,6,6,0,0,1,4.3,0,5.54,5.54,0,0,1,1.8,1.1,5.17,5.17,0,0,1,1.25,1.74,5.38,5.38,0,0,1,.47,2.27,5.45,5.45,0,0,1-.47,2.29,5.33,5.33,0,0,1-1.25,1.75,5.54,5.54,0,0,1-1.8,1.1,6.12,6.12,0,0,1-4.3,0,5.37,5.37,0,0,1-3.53-5.14,5.38,5.38,0,0,1,.47-2.27" transform="translate(-377.73 -434.73)"/></svg>